<svg width="1058" height="320" viewBox="0 0 1058 320" fill="none" xmlns="http://www.w3.org/2000/svg">
<path d="M921.262 184.293C921.262 190.443 989.689 105.391 1001.31 87.4279C977.115 79.2118 941.561 83.7371 901.609 122.849C855.445 168.038 849.948 231.93 781 247.975C821.629 272.575 914.243 272.834 979.982 222.429C1030.79 183.479 1048.03 132.45 1027.29 105.323C1046.53 76.464 1057.62 48.0513 1058 12.8561C1047.35 33.3025 1022.39 103.12 921.262 184.293Z" fill="white"/>
<path d="M146.096 293.576C151.003 293.576 155.296 292.472 158.976 290.264C162.901 288.056 166.581 284.744 170.016 280.328L174.432 283.64C169.525 291.245 164.128 296.888 158.24 300.568C152.597 304.248 145.605 306.088 137.264 306.088C127.696 306.088 119.845 304.125 113.712 300.2C107.579 296.275 102.181 290.387 97.52 282.536C92.8587 274.931 87.0933 263.4 80.224 247.944C57.6533 245.736 39.8667 236.781 26.864 221.08C14.1067 205.379 7.728 184.771 7.728 159.256C7.728 131.779 15.2107 110.067 30.176 94.12C45.1413 77.928 65.3813 69.832 90.896 69.832C116.411 69.832 136.651 77.928 151.616 94.12C166.827 110.067 174.432 131.779 174.432 159.256C174.432 182.808 168.667 202.312 157.136 217.768C145.605 233.224 129.781 242.792 109.664 246.472C112.117 251.869 113.835 255.917 114.816 258.616C120.213 270.883 124.875 279.715 128.8 285.112C132.971 290.755 138.736 293.576 146.096 293.576ZM44.896 161.096C44.896 184.893 48.944 204.029 57.04 218.504C65.136 232.733 76.0533 239.848 89.792 239.848C98.8693 239.848 106.843 236.536 113.712 229.912C120.827 223.043 126.347 213.597 130.272 201.576C134.197 189.555 136.16 175.693 136.16 159.992C136.16 144.291 134.197 130.184 130.272 117.672C126.592 105.16 121.317 95.4693 114.448 88.6C107.824 81.4853 100.219 77.928 91.632 77.928C82.5547 77.928 74.4587 81.4853 67.344 88.6C60.2293 95.4693 54.7093 105.283 50.784 118.04C46.8587 130.552 44.896 144.904 44.896 161.096ZM189.204 238.376C195.337 236.659 199.753 235.064 202.452 233.592C205.15 231.875 206.99 229.667 207.972 226.968C208.953 224.269 209.444 220.099 209.444 214.456V121.352C209.444 111.539 208.708 103.811 207.236 98.168C205.764 92.5253 202.942 86.8827 198.772 81.24L195.828 77.192L198.772 73.144H276.052C289.545 73.144 298.622 71.5493 303.284 68.36L307.7 65.048L311.38 68.36V114.36L304.02 116.936C299.604 103.688 295.188 94.6107 290.772 89.704C286.601 84.7973 280.468 82.344 272.372 82.344H260.228C253.849 82.344 249.678 83.5707 247.716 86.024C245.753 88.232 244.772 93.1387 244.772 100.744V155.944H270.9C280.468 155.944 286.724 152.264 289.668 144.904L291.508 139.752L296.292 142.328V183.544L288.196 186.488L286.724 178.76C285.742 173.363 283.534 169.805 280.1 168.088C276.665 166.125 270.164 165.144 260.596 165.144H244.772V196.792C244.772 206.36 245.508 214.088 246.98 219.976C248.697 225.619 251.641 231.261 255.812 236.904L258.756 241.32L255.812 245H191.78L189.204 238.376ZM370.662 224.024C370.662 231.384 372.993 235.064 377.654 235.064C382.316 235.064 386.854 233.224 391.27 229.544L394.214 233.224C385.628 243.283 374.956 248.312 362.198 248.312C353.612 248.312 347.356 246.349 343.43 242.424C339.505 238.253 337.542 231.752 337.542 222.92V87.864C337.542 84.4293 335.948 82.712 332.758 82.712H320.982L319.878 79.032C324.54 74.616 330.55 71.1813 337.91 68.728C345.516 66.0293 352.998 64.68 360.358 64.68C363.548 64.68 366.001 65.416 367.718 66.888C369.681 68.1147 370.662 69.9547 370.662 72.408V224.024ZM402.339 185.752C402.339 166.371 407.859 151.037 418.899 139.752C430.184 128.467 445.395 122.824 464.531 122.824C483.667 122.824 498.878 128.589 510.163 140.12C521.448 151.405 527.091 166.616 527.091 185.752C527.091 204.888 521.448 220.099 510.163 231.384C498.878 242.669 483.667 248.312 464.531 248.312C445.395 248.312 430.184 242.669 418.899 231.384C407.859 220.099 402.339 204.888 402.339 185.752ZM489.923 186.488C489.923 170.051 487.592 156.68 482.931 146.376C478.27 135.827 472.382 130.552 465.267 130.552C457.416 130.552 451.038 135.704 446.131 146.008C441.224 156.067 438.771 169.315 438.771 185.752C438.771 202.435 440.979 215.683 445.395 225.496C450.056 235.309 456.19 240.216 463.795 240.216C471.4 240.216 477.656 235.309 482.563 225.496C487.47 215.437 489.923 202.435 489.923 186.488ZM599.869 248.312C588.093 248.312 578.893 244.509 572.269 236.904C565.89 229.053 561.474 216.541 559.021 199.368L551.293 146.376C551.047 144.413 550.557 143.064 549.821 142.328C549.085 141.592 547.981 141.224 546.509 141.224H536.573L535.469 137.176C540.375 132.76 546.263 129.325 553.133 126.872C560.002 124.173 566.749 122.824 573.373 122.824C577.053 122.824 579.629 123.928 581.101 126.136C582.818 128.344 584.167 132.637 585.149 139.016L594.717 205.256C596.434 217.277 598.397 225.496 600.605 229.912C602.813 234.328 606.125 236.536 610.541 236.536C617.41 236.536 622.807 232.365 626.733 224.024C630.903 215.437 632.989 204.152 632.989 190.168C632.989 175.939 631.149 161.341 627.469 146.376C626.978 144.413 626.487 143.064 625.997 142.328C625.506 141.592 624.402 141.224 622.685 141.224H613.117L612.013 137.176C616.674 132.76 622.439 129.325 629.309 126.872C636.178 124.173 643.047 122.824 649.917 122.824C653.351 122.824 655.927 124.051 657.645 126.504C659.362 128.712 660.589 132.883 661.325 139.016L670.525 203.416C672.487 216.664 674.573 225.496 676.781 229.912C679.234 234.328 682.178 236.536 685.613 236.536C692.237 236.536 697.511 231.629 701.437 221.816C705.607 211.757 707.693 198.755 707.693 182.808C707.693 172.013 706.589 162.691 704.381 154.84C702.418 146.744 699.106 139.629 694.445 133.496L691.501 129.448L694.077 126.504L724.989 122.824C725.725 132.392 726.093 140.856 726.093 148.216C726.093 179.619 721.554 204.152 712.477 221.816C703.645 239.48 690.887 248.312 674.205 248.312C664.146 248.312 656.541 245.736 651.389 240.584C646.237 235.432 641.943 225.987 638.509 212.248C633.602 236.291 620.722 248.312 599.869 248.312Z" fill="white"/>
</svg>
